<?xml version="1.0"?>
<svg xmlns="http://www.w3.org/2000/svg" xmlns:xlink="http://www.w3.org/1999/xlink" xmlns:svgjs="http://svgjs.com/svgjs" version="1.1" width="512" height="512" x="0" y="0" viewBox="0 0 512 512" style="enable-background:new 0 0 512 512" xml:space="preserve" class=""><g>
<g xmlns="http://www.w3.org/2000/svg">
	<g>
		<path d="M492,352c11.046,0,20-8.954,20-20v-92c0-44.112-35.888-80-80-80c0-44.112-35.888-80-80-80c0-44.112-35.888-80-80-80H80    C35.888,0,0,35.888,0,80v192c0,44.112,35.888,80,80,80c0,44.112,35.888,80,80,80c0,44.112,35.888,80,80,80h192    c44.112,0,80-35.888,80-80c0-11.046-8.954-20-20-20c-11.046,0-20,8.954-20,20c0,22.056-17.944,40-40,40H240    c-22.056,0-40-17.944-40-40h152c44.112,0,80-35.888,80-80V200c22.056,0,40,17.944,40,40v92C472,343.046,480.954,352,492,352z     M80,312c-22.056,0-40-17.944-40-40V80c0-22.056,17.944-40,40-40h192c22.056,0,40,17.944,40,40v192c0,22.056-17.944,40-40,40H80z     M392,352c0,22.056-17.944,40-40,40H160c-22.056,0-40-17.944-40-40h152c44.112,0,80-35.888,80-80V120c22.056,0,40,17.944,40,40    V352z" fill="#ffffff" data-original="#000000" style="" class=""/>
	</g>
</g>
<g xmlns="http://www.w3.org/2000/svg">
</g>
<g xmlns="http://www.w3.org/2000/svg">
</g>
<g xmlns="http://www.w3.org/2000/svg">
</g>
<g xmlns="http://www.w3.org/2000/svg">
</g>
<g xmlns="http://www.w3.org/2000/svg">
</g>
<g xmlns="http://www.w3.org/2000/svg">
</g>
<g xmlns="http://www.w3.org/2000/svg">
</g>
<g xmlns="http://www.w3.org/2000/svg">
</g>
<g xmlns="http://www.w3.org/2000/svg">
</g>
<g xmlns="http://www.w3.org/2000/svg">
</g>
<g xmlns="http://www.w3.org/2000/svg">
</g>
<g xmlns="http://www.w3.org/2000/svg">
</g>
<g xmlns="http://www.w3.org/2000/svg">
</g>
<g xmlns="http://www.w3.org/2000/svg">
</g>
<g xmlns="http://www.w3.org/2000/svg">
</g>
</g></svg>
