<svg xmlns="http://www.w3.org/2000/svg" xmlns:xlink="http://www.w3.org/1999/xlink" viewBox="0 0 108 108"><defs><style>.cls-1{fill:url(#radial-gradient);}.cls-2,.cls-3,.cls-4{fill:#f7f5e4;stroke-miterlimit:10;stroke-width:0.5px;}.cls-2{stroke:url(#radial-gradient-2);}.cls-3{stroke:url(#radial-gradient-3);}.cls-4{stroke:url(#radial-gradient-4);}</style><radialGradient id="radial-gradient" cx="54" cy="54" r="54.98" gradientTransform="translate(1.46 0.45) scale(0.97 0.99)" gradientUnits="userSpaceOnUse"><stop offset="0" stop-color="#33789d"/><stop offset="1" stop-color="#0d2035"/></radialGradient><radialGradient id="radial-gradient-2" cx="80.62" cy="53.98" r="20.88" gradientUnits="userSpaceOnUse"><stop offset="0" stop-color="#3f6b95"/><stop offset="1" stop-color="#393b43"/></radialGradient><radialGradient id="radial-gradient-3" cx="46.78" cy="54.03" r="28.34" xlink:href="#radial-gradient-2"/><radialGradient id="radial-gradient-4" cx="53.83" cy="59.02" r="34.96" xlink:href="#radial-gradient-2"/></defs><g id="Layer_2" data-name="Layer 2"><g id="Logo"><path class="cls-1" d="M108,54A54,54,0,0,1,7.23,81a54,54,0,1,1,93.54-54A53.68,53.68,0,0,1,108,54Z"/><path class="cls-2" d="M81.75,79.29a28.79,28.79,0,0,0-6.25-3.6h0c-1.64-.4-7.63-31.43,4.75-43.75,0,0,8.61-8,8.44-5.61C69.58,43.05,82.58,77.9,85,82a.07.07,0,0,1-.1.09A40.14,40.14,0,0,0,81.75,79.29Z"/><path class="cls-3" d="M18.88,26.25c20.5,17.85,4.32,54.41,3.35,56a0,0,0,0,0,0,0H74.61a.07.07,0,0,0,0-.14c-5-2.39-5.44-4-6.66-5.83-.19-.3-.22-.65-.58-.65H32.13c1.62-.19,7.69-31.4-4.73-43.76,0,0-8.52-8.28-8.52-5.68"/><path class="cls-4" d="M53.83,71.41C43.69,23.44,19.9,24.82,18,25.88a.05.05,0,0,0,0,.1c1.21.15,8.31,3.32,14,10.88,9.57,11.62,17.85,30,21.71,55.53a.11.11,0,0,0,.22,0C57.8,66.88,66.09,48.48,75.65,36.86c5.71-7.54,12.78-10.71,14-10.88a.06.06,0,0,0,0-.11c-2-1.06-25.75-2.31-35.87,45.54Z"/></g></g></svg>