<svg xmlns="http://www.w3.org/2000/svg" viewBox="0 0 500 500"><defs><style>.cls-1{fill:#fff;}.cls-2,.cls-3{fill:#010207;stroke:#000207;stroke-miterlimit:10;}.cls-2{stroke-width:0.84px;}.cls-3{stroke-width:0.83px;}</style></defs><g id="Logo"><path class="cls-1" d="M435,250a178.07,178.07,0,0,1-25.14,91.41,184.21,184.21,0,0,1-68,66.17,188.31,188.31,0,0,1-183.7,0,184.21,184.21,0,0,1-68-66.17,178.76,178.76,0,0,1,0-182.82,184.21,184.21,0,0,1,68-66.17,188.31,188.31,0,0,1,183.7,0,184.21,184.21,0,0,1,68,66.17A178.07,178.07,0,0,1,435,250Z"/><path class="cls-2" d="M348.71,334.25a101.56,101.56,0,0,0-22.08-12.73l-.12,0c-5.8-1.42-27-111.13,16.78-154.68,0,0,30.44-28.14,29.84-19.83-67.44,59.14-21.49,182.36-12.77,196.74a.25.25,0,0,1-.37.32A140.86,140.86,0,0,0,348.71,334.25Z"/><path class="cls-3" d="M126.48,146.74c72.45,63.1,15.25,192.33,11.83,198a.12.12,0,0,0,.1.18H323.48a.27.27,0,0,0,.1-.51c-17.53-8.43-19.24-14-23.54-20.6-.69-1.07-.79-2.3-2.06-2.3H173.3c5.71-.67,27.18-111-16.72-154.69,0,0-30.1-29.26-30.1-20.07"/><path class="cls-2" d="M250,306.38c-35.85-169.58-120-164.7-126.86-161a.2.2,0,0,0,.07.37c4.3.51,29.39,11.71,49.64,38.44C206.7,225.31,236,290.38,249.63,380.56a.4.4,0,0,0,.79,0c13.63-90.18,42.92-155.25,76.75-196.33,20.18-26.64,45.17-37.85,49.59-38.43a.22.22,0,0,0,.07-.41c-7.26-3.74-91.05-8.18-126.81,161Z"/></g></svg>